HIERARCHY
ROOT Pelvis
{
	OFFSET 0.000000 0.941512 0.000000
	CHANNELS 6 Xposition Yposition Zposition Zrotation Yrotation Xrotation 
	JOINT Pelvis_L_Hip
	{
		OFFSET 0.000000 0.000000 0.000000
		CHANNELS 3 Zrotation Yrotation Xrotation
		JOINT L_Hip
		{
			OFFSET 0.062321 -0.080322 -0.016990
			CHANNELS 3 Zrotation Yrotation Xrotation
			JOINT L_Knee
			{
				OFFSET 0.093051 -0.381305 -0.029784
				CHANNELS 3 Zrotation Yrotation Xrotation
				JOINT L_Ankle
				{
					OFFSET -0.010371 -0.431000 -0.033614
					CHANNELS 3 Zrotation Yrotation Xrotation
					End Site #name: L_Foot
					{
						OFFSET 0.069299 -0.038670 0.119418
					}
				}
			}
		}
	}
	JOINT Pelvis_R_Hip
	{
		OFFSET 0.000000 0.000000 0.000000
		CHANNELS 3 Zrotation Yrotation Xrotation
		JOINT R_Hip
		{
			OFFSET -0.055334 -0.094904 -0.002373
			CHANNELS 3 Zrotation Yrotation Xrotation
			JOINT R_Knee
			{
				OFFSET -0.064207 -0.384370 -0.019592
				CHANNELS 3 Zrotation Yrotation Xrotation
				JOINT R_Ankle
				{
					OFFSET 0.025418 -0.419734 -0.065953
					CHANNELS 3 Zrotation Yrotation Xrotation
					End Site #name: R_Foot
					{
						OFFSET -0.057233 -0.039888 0.132134
					}
				}
			}
		}
	}
	JOINT Pelvis_Spine1
	{
		OFFSET 0.000000 0.000000 0.000000
		CHANNELS 3 Zrotation Yrotation Xrotation
		JOINT Spine1
		{
			OFFSET -0.005562 0.124093 -0.043360
			CHANNELS 3 Zrotation Yrotation Xrotation
			JOINT Spine2
			{
				OFFSET 0.012244 0.139499 0.029894
				CHANNELS 3 Zrotation Yrotation Xrotation
				JOINT Spine3
				{
					OFFSET -0.002556 0.056561 0.009225
					CHANNELS 3 Zrotation Yrotation Xrotation
					JOINT Spine3_Neck
					{
						OFFSET 0.000000 0.000000 0.000000
						CHANNELS 3 Zrotation Yrotation Xrotation
						JOINT Neck
						{
							OFFSET -0.005205 0.217920 -0.024551
							CHANNELS 3 Zrotation Yrotation Xrotation
							End Site #name: Head
							{
								OFFSET 0.002365 0.091850 0.046637
							}
						}
					}
					JOINT Spine3_L_Collar
					{
						OFFSET 0.000000 0.000000 0.000000
						CHANNELS 3 Zrotation Yrotation Xrotation
						JOINT L_Collar
						{
							OFFSET 0.072225 0.116603 -0.009480
							CHANNELS 3 Zrotation Yrotation Xrotation
							JOINT L_Shoulder
							{
								OFFSET 0.115937 -0.058643 -0.021018
								CHANNELS 3 Zrotation Yrotation Xrotation
								JOINT L_Elbow
								{
									OFFSET 0.021994 -0.254722 -0.024492
									CHANNELS 3 Zrotation Yrotation Xrotation
									End Site #name: L_Wrist
									{
										OFFSET 0.048810 -0.240214 0.103329
									}
								}
							}
						}
					}
					JOINT Spine3_R_Collar
					{
						OFFSET 0.000000 0.000000 0.000000
						CHANNELS 3 Zrotation Yrotation Xrotation
						JOINT R_Collar
						{
							OFFSET -0.073372 0.120704 -0.024611
							CHANNELS 3 Zrotation Yrotation Xrotation
							JOINT R_Shoulder
							{
								OFFSET -0.108089 -0.054969 -0.020504
								CHANNELS 3 Zrotation Yrotation Xrotation
								JOINT R_Elbow
								{
									OFFSET -0.033684 -0.260739 0.009889
									CHANNELS 3 Zrotation Yrotation Xrotation
									End Site #name: R_Wrist
									{
										OFFSET -0.067980 -0.232763 0.118463
									}
								}
							}
						}
					}
				}
			}
		}
	}
}
MOTION
Frames: 17
Frame Time: 0.041667
0.014846 0.967813 -0.024277 -5.128993 -0.021700 13.851477 0.000000 0.000000 0.000000 0.590914 -4.012922 -17.130871 11.408973 -1.277648 3.019129 -5.899525 -7.824577 5.509810 0.000000 0.000000 0.000000 4.157047 3.770809 -19.732443 -8.218252 2.164660 6.359199 4.595416 8.475185 4.196365 0.000000 0.000000 0.000000 4.031629 0.561414 -12.202726 -2.313337 4.621056 52.847285 5.427038 4.012936 -34.274290 0.000000 0.000000 0.000000 -3.845194 2.786056 62.031194 0.000000 0.000000 0.000000 43.311561 -22.779104 -14.742559 -28.628438 8.515160 20.178590 1.438236 -32.315800 -85.748448 0.000000 0.000000 0.000000 -49.370037 20.057956 -11.321336 32.578998 -5.442295 19.309578 1.074203 49.402826 -80.178451 
0.014459 0.972459 -0.025222 -5.147870 0.503535 13.902841 0.000000 0.000000 0.000000 0.606177 -4.059178 -17.320751 11.482313 -1.269773 2.905528 -6.381450 -8.231797 6.017013 0.000000 0.000000 0.000000 4.193434 3.645259 -19.145508 -8.141656 1.986602 5.183817 4.948446 8.225085 5.077881 0.000000 0.000000 0.000000 3.705008 0.681397 -12.795215 -1.960709 4.102678 51.427133 5.800996 4.032978 -32.329617 0.000000 0.000000 0.000000 -4.425310 3.665470 63.886371 0.000000 0.000000 0.000000 46.513565 -22.417668 -14.447519 -31.119047 8.469086 18.022472 1.136372 -33.864657 -87.091768 0.000000 0.000000 0.000000 -51.153375 19.394020 -10.569437 32.817968 -5.697595 19.615694 -0.417962 49.567987 -82.782009 
0.012836 0.972300 -0.026466 -5.198702 0.244780 12.986417 0.000000 0.000000 0.000000 0.686309 -3.838249 -16.358738 11.228540 -1.266768 3.094487 -5.808001 -8.173252 5.164990 0.000000 0.000000 0.000000 4.147879 3.587416 -18.849043 -7.864680 2.095013 6.422115 4.646438 8.507079 4.292053 0.000000 0.000000 0.000000 3.067850 0.721806 -12.435960 -1.248503 3.763032 52.934635 5.591247 3.826617 -33.079530 0.000000 0.000000 0.000000 -4.553619 3.813630 61.320464 0.000000 0.000000 0.000000 44.213451 -20.803657 -12.448230 -28.207678 7.156025 16.457658 1.294857 -36.185346 -89.321538 0.000000 0.000000 0.000000 -46.243730 18.407486 -9.447940 25.727667 -4.582767 18.672510 -1.733649 51.399018 -85.361461 
0.011811 0.964615 -0.028632 -4.921527 -0.117302 12.558996 0.000000 0.000000 0.000000 0.421478 -3.811503 -16.181129 11.011248 -1.323470 3.749018 -4.233790 -7.706839 2.938729 0.000000 0.000000 0.000000 3.654229 3.623260 -19.230401 -7.596190 2.240357 7.954499 3.508009 8.309963 2.145941 0.000000 0.000000 0.000000 2.416841 0.757910 -12.032199 -0.679738 3.685795 56.197523 4.524381 3.507288 -37.425629 0.000000 0.000000 0.000000 -3.908840 2.719836 56.874509 0.000000 0.000000 0.000000 32.434027 -18.011183 -9.596739 -15.789326 4.553134 17.053336 1.245890 -39.784207 -90.225519 0.000000 0.000000 0.000000 -33.843231 16.251699 -7.703743 13.373430 -3.310342 18.106539 -1.705814 55.359960 -86.118403 
0.013036 0.957947 -0.029849 -5.028484 -0.252743 12.232713 0.000000 0.000000 0.000000 0.453582 -3.658472 -15.520311 11.200474 -1.220899 2.733488 -4.668713 -7.562902 3.707224 0.000000 0.000000 0.000000 3.809139 3.580643 -18.930160 -7.845011 2.262436 7.682208 3.642687 8.344789 2.388458 0.000000 0.000000 0.000000 3.034601 0.594666 -11.315273 -1.849775 4.589257 55.811837 4.445905 4.069931 -38.706825 0.000000 0.000000 0.000000 -3.894241 2.479390 56.351649 0.000000 0.000000 0.000000 32.254172 -18.780694 -10.233455 -17.169605 4.877565 17.437912 -0.089246 -37.424554 -85.264559 0.000000 0.000000 0.000000 -34.935486 17.614462 -9.044948 18.378378 -4.380849 20.749311 -0.268208 52.531568 -82.558621 
0.014662 0.964163 -0.033291 -5.244643 0.037040 12.686688 0.000000 0.000000 0.000000 0.629970 -3.802579 -16.190690 11.319691 -1.194968 2.430134 -5.793737 -7.801692 5.344669 0.000000 0.000000 0.000000 4.072764 3.651533 -19.172357 -8.057515 2.184128 6.760140 4.555367 8.532796 4.086660 0.000000 0.000000 0.000000 3.462188 0.468393 -10.741682 -2.976452 4.756567 50.077100 5.509358 4.819116 -34.286359 0.000000 0.000000 0.000000 -4.428456 3.079670 58.465959 0.000000 0.000000 0.000000 38.556250 -18.654072 -9.855322 -25.698942 6.370553 15.969204 -2.023386 -37.015703 -82.461869 0.000000 0.000000 0.000000 -41.952759 17.155445 -8.424868 25.710982 -4.942830 19.943696 0.933250 52.084144 -81.498457 
0.015050 0.972765 -0.036355 -5.140774 0.467168 12.550668 0.000000 0.000000 0.000000 0.486645 -3.919605 -16.651793 11.215831 -1.281037 3.230949 -6.054955 -8.345915 5.441719 0.000000 0.000000 0.000000 4.128039 3.534539 -18.605583 -8.250822 2.098015 5.831444 4.794292 8.560032 4.563144 0.000000 0.000000 0.000000 3.465081 0.531137 -11.229371 -3.127094 4.688168 49.358034 5.909012 4.820214 -31.619295 0.000000 0.000000 0.000000 -4.613525 3.284642 59.004912 0.000000 0.000000 0.000000 42.749957 -19.430364 -10.600884 -29.322904 7.474041 16.432132 -0.933549 -37.111865 -85.532171 0.000000 0.000000 0.000000 -47.367177 18.023454 -9.294992 29.064827 -5.682380 20.641571 -0.382878 51.790175 -83.859867 
0.015176 0.972861 -0.041873 -5.159875 0.544607 11.633212 0.000000 0.000000 0.000000 0.490049 -3.825237 -16.219990 11.118179 -1.320999 3.643180 -5.754058 -8.789583 4.740323 0.000000 0.000000 0.000000 4.275556 3.492861 -18.318806 -8.337312 2.226780 6.640611 4.280750 8.529787 3.571785 0.000000 0.000000 0.000000 3.487448 0.360118 -9.781209 -3.423511 4.885068 49.568034 6.228240 4.838895 -30.579867 0.000000 0.000000 0.000000 -4.473583 3.044920 57.991622 0.000000 0.000000 0.000000 46.151803 -20.054796 -11.301385 -31.891553 7.975965 15.987701 -0.334870 -35.900514 -85.985192 0.000000 0.000000 0.000000 -50.618504 18.603447 -9.929744 30.737061 -5.517285 19.638570 -0.371630 51.095768 -83.567621 
0.016357 0.967141 -0.048682 -5.151301 0.444306 10.702916 0.000000 0.000000 0.000000 0.426935 -3.775096 -15.971315 11.197202 -1.389855 4.134955 -5.387307 -8.700256 4.214717 0.000000 0.000000 0.000000 4.249696 3.580712 -18.724208 -8.314695 2.466887 8.408750 3.703222 8.263191 2.581534 0.000000 0.000000 0.000000 3.444081 0.202546 -8.377426 -3.248826 5.126907 52.827099 6.252267 4.818439 -32.147714 0.000000 0.000000 0.000000 -4.361158 2.866384 55.715150 0.000000 0.000000 0.000000 43.771528 -22.385366 -14.139587 -29.632050 8.541696 19.178710 1.313424 -33.447907 -86.887475 0.000000 0.000000 0.000000 -48.635236 20.984263 -12.967465 28.117313 -5.685392 20.866346 -1.725478 49.665812 -84.471673 
0.017462 0.964566 -0.053786 -5.223500 0.510359 11.735401 0.000000 0.000000 0.000000 0.473541 -4.053892 -17.210349 11.521352 -1.344590 3.479976 -5.793619 -8.170106 5.117239 0.000000 0.000000 0.000000 4.248345 3.912290 -20.348076 -8.346527 2.493890 8.551179 3.747583 7.919891 2.881697 0.000000 0.000000 0.000000 3.648120 0.218005 -8.817869 -3.255713 5.331649 54.633228 6.091560 4.975729 -34.802007 0.000000 0.000000 0.000000 -4.178574 2.544656 53.960285 0.000000 0.000000 0.000000 41.992757 -23.759307 -15.571588 -28.001942 8.818327 21.518164 1.610846 -32.437481 -86.213989 0.000000 0.000000 0.000000 -47.603375 22.367568 -14.554774 29.021443 -6.383517 22.635331 -2.215571 47.872888 -84.078448 
0.018563 0.967948 -0.051804 -5.212030 0.970656 12.080375 0.000000 0.000000 0.000000 0.564415 -4.009303 -17.032088 11.474619 -1.204472 2.416708 -6.716734 -8.902281 6.138960 0.000000 0.000000 0.000000 4.123894 3.718973 -19.519876 -8.304790 2.222053 6.668162 4.318828 7.969037 4.017026 0.000000 0.000000 0.000000 3.941434 0.266004 -9.559085 -3.738086 5.173400 50.930586 6.732745 5.139713 -32.103262 0.000000 0.000000 0.000000 -4.606628 3.040511 55.089532 0.000000 0.000000 0.000000 45.441277 -23.247200 -15.177734 -31.002925 9.307209 20.181185 1.538955 -32.516527 -86.677989 0.000000 0.000000 0.000000 -50.652490 21.282336 -13.471262 33.184648 -7.060794 22.655245 -2.126928 48.509658 -84.926116 
0.019777 0.973077 -0.049546 -5.298808 1.027475 11.570776 0.000000 0.000000 0.000000 0.397035 -3.845402 -16.274238 11.548755 -1.212096 2.419740 -6.795082 -9.194366 6.100641 0.000000 0.000000 0.000000 4.208323 3.438512 -18.107457 -8.354533 2.062342 5.425464 4.721443 8.198111 4.679689 0.000000 0.000000 0.000000 4.096855 0.310159 -10.068095 -3.388154 4.726892 49.127882 6.848898 4.946217 -30.166941 0.000000 0.000000 0.000000 -4.752873 3.220813 54.002091 0.000000 0.000000 0.000000 48.227420 -22.648915 -14.641108 -32.300072 9.105681 18.444086 1.284741 -34.454903 -88.270621 0.000000 0.000000 0.000000 -52.450718 20.246462 -12.181212 34.132479 -7.033505 22.083033 -2.879824 49.057362 -86.673561 
0.019539 0.973331 -0.049647 -5.235870 0.507441 10.912842 0.000000 0.000000 0.000000 0.294269 -3.754411 -15.859559 11.199508 -1.305251 3.444981 -5.865977 -8.816093 4.895349 0.000000 0.000000 0.000000 3.964627 3.420905 -18.088520 -8.068127 2.182176 6.745110 4.510773 8.389091 4.114468 0.000000 0.000000 0.000000 3.590883 0.317491 -9.525446 -2.618942 4.404308 50.260469 6.493114 4.576287 -31.362974 0.000000 0.000000 0.000000 -4.499213 2.912180 48.778469 0.000000 0.000000 0.000000 45.291652 -20.702633 -12.217356 -28.648684 7.574553 17.032659 0.957321 -37.016674 -89.483216 0.000000 0.000000 0.000000 -47.008472 18.878404 -10.277843 27.098865 -5.389644 20.337156 -3.098953 51.323733 -87.731057 
0.018944 0.967394 -0.051020 -5.112394 -0.285371 10.945640 0.000000 0.000000 0.000000 0.070398 -3.737311 -15.759633 11.262777 -1.312600 3.435474 -4.944417 -7.857629 3.982296 0.000000 0.000000 0.000000 3.577146 3.588664 -19.049449 -7.730449 2.288163 8.074582 4.043321 8.431903 3.130367 0.000000 0.000000 0.000000 3.552535 0.169359 -8.316024 -2.666177 4.809864 52.137758 5.940150 4.457695 -35.136157 0.000000 0.000000 0.000000 -4.104848 2.394098 41.673407 0.000000 0.000000 0.000000 37.642360 -19.727697 -11.181423 -21.193280 6.397980 19.406987 1.250942 -37.866986 -89.630047 0.000000 0.000000 0.000000 -38.281423 18.267606 -9.638661 20.230793 -4.816115 21.201826 -2.777082 52.233249 -86.826525 
0.020297 0.964289 -0.050354 -5.274342 -0.840460 11.145153 0.000000 0.000000 0.000000 0.047660 -3.672049 -15.496429 11.469287 -1.229655 2.577093 -5.410222 -7.219182 5.079137 0.000000 0.000000 0.000000 3.761115 3.669525 -19.317400 -7.995635 2.315378 7.793974 4.516574 8.751597 3.839377 0.000000 0.000000 0.000000 4.506173 -0.056449 -7.812889 -3.644701 5.446216 50.456470 5.801820 4.605113 -35.049288 0.000000 0.000000 0.000000 -3.864000 2.093484 37.131543 0.000000 0.000000 0.000000 40.660960 -19.269077 -10.631480 -25.152884 7.043300 18.505101 -0.598966 -37.621262 -86.036042 0.000000 0.000000 0.000000 -41.428957 17.670059 -8.801050 26.557174 -5.524439 21.311031 -2.183278 50.297227 -85.356166 
0.020487 0.970158 -0.047888 -5.355761 -0.939718 11.599279 0.000000 0.000000 0.000000 0.191804 -3.701494 -15.665506 11.280035 -1.201343 2.494593 -5.810502 -7.472680 5.587796 0.000000 0.000000 0.000000 3.868833 3.597827 -18.922402 -8.066760 2.136538 6.372765 5.177100 8.904721 5.018044 0.000000 0.000000 0.000000 4.330895 0.056222 -8.499205 -3.391438 4.722428 45.578493 6.063907 4.401981 -31.304197 0.000000 0.000000 0.000000 -4.058081 2.310921 34.828312 0.000000 0.000000 0.000000 41.882752 -17.364930 -8.574992 -27.166878 7.492090 17.941510 -1.867517 -39.787362 -85.907896 0.000000 0.000000 0.000000 -42.908214 15.731447 -6.554155 27.390492 -5.682781 21.052498 -2.037046 52.045287 -86.505213 
0.018873 0.973476 -0.043277 -5.231550 -1.142912 11.434941 0.000000 0.000000 0.000000 -0.056035 -3.627838 -15.299540 11.179012 -1.266630 3.109851 -5.295849 -7.601032 4.714409 0.000000 0.000000 0.000000 3.605433 3.417742 -18.159284 -7.785849 2.019724 5.957071 5.204782 9.103407 4.938413 0.000000 0.000000 0.000000 4.083995 0.240674 -9.658339 -2.677115 4.222737 44.852773 5.327375 3.517719 -31.558287 0.000000 0.000000 0.000000 -3.602798 1.957131 30.589797 0.000000 0.000000 0.000000 39.713282 -13.944574 -5.108533 -24.647712 6.309675 16.151760 -2.608161 -41.984864 -86.105476 0.000000 0.000000 0.000000 -38.876710 12.659723 -3.460805 21.961077 -4.243524 18.548971 -0.462348 54.655004 -85.129619 
